<svg viewBox="8 10 183 183" xmlns="http://www.w3.org/2000/svg">
  <path fill="#FF0066" d="M42.3,-73.9C55.1,-65.9,66,-55.2,74.7,-42.4C83.4,-29.6,89.9,-14.8,90.2,0.2C90.5,15.2,84.6,30.3,75.9,43.1C67.3,56,55.9,66.4,42.7,74.9C29.6,83.4,14.8,89.9,-0.8,91.3C-16.4,92.6,-32.7,88.8,-45.8,80.3C-58.9,71.8,-68.6,58.5,-76.5,44.3C-84.3,30.2,-90.3,15.1,-91.2,-0.5C-92.1,-16.1,-88,-32.3,-79.9,-46C-71.7,-59.6,-59.5,-70.8,-45.5,-78.1C-31.6,-85.4,-15.8,-88.9,-0.5,-88C14.7,-87.1,29.5,-81.9,42.3,-73.9Z" transform="translate(100 100)" />
</svg>
