<svg viewBox="7 8 183 181" xmlns="http://www.w3.org/2000/svg">
  <path fill="#FF0066" d="M45.6,-78.5C59.8,-70.8,72.5,-60,80.3,-46.4C88.1,-32.8,91,-16.4,89.8,-0.7C88.6,15,83.3,30,75.3,43.3C67.3,56.6,56.6,68,43.6,75.8C30.6,83.5,15.3,87.4,-0.6,88.4C-16.5,89.5,-33,87.6,-45.9,79.8C-58.7,72,-67.9,58.3,-76.1,44C-84.2,29.7,-91.3,14.8,-92.6,-0.7C-93.8,-16.3,-89.2,-32.6,-81,-46.8C-72.8,-60.9,-60.9,-73,-46.8,-80.7C-32.7,-88.5,-16.4,-91.9,-0.3,-91.3C15.7,-90.8,31.4,-86.2,45.6,-78.5Z" transform="translate(100 100)" />
</svg>
