<svg viewBox="9 13 185 176" xmlns="http://www.w3.org/2000/svg">
  <path fill="#FF0066" d="M45.2,-76.2C59.6,-69.9,73,-59.9,81.8,-46.6C90.6,-33.3,94.7,-16.7,93.9,-0.4C93.2,15.8,87.6,31.6,79,45.3C70.5,58.9,58.9,70.5,45.3,77.8C31.6,85.1,15.8,88.1,-0.4,88.9C-16.7,89.6,-33.3,88.1,-46.4,80.4C-59.5,72.8,-69,59.1,-76.8,44.6C-84.7,30.2,-91,15.1,-91,0C-91,-15.1,-84.8,-30.3,-76.9,-44.6C-69,-59,-59.4,-72.7,-46.3,-79.8C-33.2,-86.9,-16.6,-87.4,-0.6,-86.3C15.4,-85.2,30.7,-82.5,45.2,-76.2Z" transform="translate(100 100)" />
</svg>
