<svg xmlns:xlink="http://www.w3.org/1999/xlink" id="wave" style="transform:rotate(180deg); transition: 0.3s" viewBox="0 0 1440 100" version="1.1" xmlns="http://www.w3.org/2000/svg"><defs><linearGradient id="sw-gradient-0" x1="0" x2="0" y1="1" y2="0"><stop stop-color="rgba(229, 249, 255, 1)" offset="0%"/><stop stop-color="rgba(229, 249, 255, 1)" offset="100%"/></linearGradient></defs><path style="transform:translate(0, 0px); opacity:1" fill="url(#sw-gradient-0)" d="M0,50L14.1,46.7C28.2,43,56,37,85,40C112.9,43,141,57,169,66.7C197.6,77,226,83,254,85C282.4,87,311,83,339,73.3C367.1,63,395,47,424,33.3C451.8,20,480,10,508,11.7C536.5,13,565,27,593,36.7C621.2,47,649,53,678,46.7C705.9,40,734,20,762,16.7C790.6,13,819,27,847,40C875.3,53,904,67,932,63.3C960,60,988,40,1016,26.7C1044.7,13,1073,7,1101,16.7C1129.4,27,1158,53,1186,56.7C1214.1,60,1242,40,1271,38.3C1298.8,37,1327,53,1355,58.3C1383.5,63,1412,57,1440,48.3C1468.2,40,1496,30,1525,26.7C1552.9,23,1581,27,1609,33.3C1637.6,40,1666,50,1694,50C1722.4,50,1751,40,1779,43.3C1807.1,47,1835,63,1864,65C1891.8,67,1920,53,1948,43.3C1976.5,33,2005,27,2019,23.3L2032.9,20L2032.9,100L2018.8,100C2004.7,100,1976,100,1948,100C1920,100,1892,100,1864,100C1835.3,100,1807,100,1779,100C1750.6,100,1722,100,1694,100C1665.9,100,1638,100,1609,100C1581.2,100,1553,100,1525,100C1496.5,100,1468,100,1440,100C1411.8,100,1384,100,1355,100C1327.1,100,1299,100,1271,100C1242.4,100,1214,100,1186,100C1157.6,100,1129,100,1101,100C1072.9,100,1045,100,1016,100C988.2,100,960,100,932,100C903.5,100,875,100,847,100C818.8,100,791,100,762,100C734.1,100,706,100,678,100C649.4,100,621,100,593,100C564.7,100,536,100,508,100C480,100,452,100,424,100C395.3,100,367,100,339,100C310.6,100,282,100,254,100C225.9,100,198,100,169,100C141.2,100,113,100,85,100C56.5,100,28,100,14,100L0,100Z"/></svg>