<?xml version="1.0" encoding="UTF-8" standalone="no"?>
<svg
   id="wave"
   viewBox="0 0 2000 50"
   version="1.1"
   sodipodi:docname="wave.svg"
   width="2000"
   height="50"
   inkscape:version="1.4 (86a8ad7, 2024-10-11)"
   xmlns:inkscape="http://www.inkscape.org/namespaces/inkscape"
   xmlns:sodipodi="http://sodipodi.sourceforge.net/DTD/sodipodi-0.dtd"
   xmlns="http://www.w3.org/2000/svg"
   xmlns:svg="http://www.w3.org/2000/svg">
  <sodipodi:namedview
     id="namedview2"
     pagecolor="#ffffff"
     bordercolor="#000000"
     borderopacity="0.25"
     inkscape:showpageshadow="2"
     inkscape:pageopacity="0.0"
     inkscape:pagecheckerboard="0"
     inkscape:deskcolor="#d1d1d1"
     inkscape:zoom="0.5"
     inkscape:cx="867"
     inkscape:cy="-53"
     inkscape:window-width="1920"
     inkscape:window-height="1017"
     inkscape:window-x="-8"
     inkscape:window-y="487"
     inkscape:window-maximized="1"
     inkscape:current-layer="wave" />
  <defs
     id="defs2">
    <linearGradient
       id="sw-gradient-0"
       x1="0"
       x2="0"
       y1="479.30762"
       y2="55.174965"
       gradientTransform="matrix(4.7155063,0,0,-0.11788766,0,56.504447)"
       gradientUnits="userSpaceOnUse">
      <stop
         stop-color="rgba(229, 249, 255, 1)"
         offset="0%"
         id="stop1" />
      <stop
         stop-color="rgba(229, 249, 255, 1)"
         offset="100%"
         id="stop2" />
    </linearGradient>
  </defs>
  <path
     style="opacity:1;fill:url(#sw-gradient-0);stroke-width:0.745587"
     fill="url(#sw-gradient-0)"
     d="m 0,28.252223 13.871809,1.864646 c 13.871804,2.090665 41.221896,5.480932 69.752569,3.785798 27.448482,-1.695133 55.093712,-9.605756 82.640572,-15.086687 28.13715,-5.819959 56.07753,-9.2102251 83.62438,-10.3403144 27.94039,-1.1300889 56.07753,1.1300893 83.62439,6.6110204 27.64523,5.819958 55.09371,14.86067 83.62438,22.60178 27.35009,7.515092 55.09371,13.165536 82.64057,12.204961 28.03876,-0.734559 56.07752,-8.645181 83.62438,-14.126112 27.74362,-5.819959 55.09371,-9.210225 83.62438,-5.650445 27.44848,3.785797 55.09371,15.086688 82.64057,16.951334 28.13714,2.090664 56.07753,-5.819958 83.62438,-13.165537 27.842,-7.345577 56.07753,-15.256201 83.62439,-13.165536 27.54686,1.864647 55.09372,13.165536 82.64046,20.680628 28.23557,7.741109 56.07757,11.131377 83.62437,5.650445 27.9404,-5.819958 56.0775,-20.511114 83.6244,-22.60178 27.6452,-1.864646 55.0937,9.436243 83.6244,10.396819 27.3501,0.734558 55.0937,-8.306153 82.6405,-11.30089 28.0388,-2.655709 56.0776,0.734558 83.6244,5.650445 27.7437,4.689869 55.0937,10.340315 83.6244,12.204961 27.4485,2.090665 55.0937,-0.169513 82.6406,-3.729293 28.1371,-3.785799 56.0775,-9.436243 83.6244,-9.436243 27.9403,0 56.0775,5.650444 83.6243,3.785798 27.6453,-2.090665 55.0938,-11.131377 83.6244,-12.261466 27.3501,-1.130089 55.0937,6.780535 82.6406,12.261466 28.0388,5.819958 56.0775,9.210225 69.851,11.300889 L 2000,45.203558 V 0 h -13.8718 c -13.8718,0 -42.1073,0 -69.6542,0 -27.5469,0 -55.0937,0 -82.6406,0 -28.2355,0 -56.0775,0 -83.6244,0 -27.9403,0 -56.0775,0 -83.6243,0 -27.6453,0 -55.0937,0 -83.6244,0 -27.3501,0 -55.0937,0 -82.6406,0 -28.0387,0 -56.0775,0 -83.6244,0 -27.7436,0 -55.0937,0 -83.6244,0 -27.4484,0 -55.0937,0 -82.6405,0 -28.1372,0 -56.0775,0 -83.6244,0 -27.9404,0 -56.0775,0 -83.6244,0 -27.6452,0 -55.0937,0 -83.62437,0 -27.34998,0 -55.0936,0 -82.64046,0 C 888.878,0 860.83924,0 833.29238,0 805.54876,0 778.19867,0 749.668,0 722.21952,0 694.57429,0 667.02743,0 638.89029,0 610.9499,0 583.40305,0 555.56105,0 527.32552,0 499.77867,0 472.23181,0 444.68495,0 417.1381,0 388.90257,0 361.06057,0 333.51372,0 305.57333,0 277.43619,0 249.88933,0 222.2441,0 194.79562,0 166.26495,0 138.91486,0 111.17124,0 83.624378,0 55.585614,0 27.546851,0 13.773428,0 H 0 Z"
     id="path2" />
</svg>
