<?xml version="1.0" encoding="UTF-8" standalone="no"?>
<svg
   id="Layer_1"
   data-name="Layer 1"
   viewBox="0 0 128 128"
   version="1.1"
   sodipodi:docname="email.svg"
   inkscape:version="1.4 (86a8ad7, 2024-10-11)"
   xmlns:inkscape="http://www.inkscape.org/namespaces/inkscape"
   xmlns:sodipodi="http://sodipodi.sourceforge.net/DTD/sodipodi-0.dtd"
   xmlns="http://www.w3.org/2000/svg"
   xmlns:svg="http://www.w3.org/2000/svg">
  <defs
     id="defs1" />
  <sodipodi:namedview
     id="namedview1"
     pagecolor="#ffffff"
     bordercolor="#000000"
     borderopacity="0.25"
     inkscape:showpageshadow="2"
     inkscape:pageopacity="0.0"
     inkscape:pagecheckerboard="0"
     inkscape:deskcolor="#d1d1d1"
     inkscape:zoom="6.3671875"
     inkscape:cx="64"
     inkscape:cy="64"
     inkscape:window-width="1920"
     inkscape:window-height="1017"
     inkscape:window-x="-8"
     inkscape:window-y="487"
     inkscape:window-maximized="1"
     inkscape:current-layer="Layer_1" />
  <title
     id="title1">EMAIL</title>
  <path
     d="M123.25,24.192c0-.018,0-.034-.005-.052s-.007-.063-.009-.094a1.734,1.734,0,0,0-.083-.408c-.006-.018,0-.037-.011-.055s-.01-.015-.013-.023a1.734,1.734,0,0,0-.227-.407c-.021-.028-.043-.053-.066-.08a1.755,1.755,0,0,0-.31-.294c-.012-.009-.022-.02-.034-.028a1.744,1.744,0,0,0-.414-.2c-.034-.012-.068-.022-.1-.032a1.733,1.733,0,0,0-.474-.073H6.5a1.733,1.733,0,0,0-.474.073c-.035.01-.068.02-.1.032a1.744,1.744,0,0,0-.414.2c-.012.008-.022.019-.034.028a1.755,1.755,0,0,0-.31.294c-.022.027-.045.052-.066.08a1.734,1.734,0,0,0-.227.407c0,.008-.01.015-.013.023s-.005.037-.011.055a1.734,1.734,0,0,0-.083.408c0,.032-.009.063-.009.094s-.005.034-.005.052v79.615c0,.023.006.045.007.068a1.737,1.737,0,0,0,.019.188c.008.051.015.1.027.152a1.74,1.74,0,0,0,.056.179c.017.047.033.094.054.139a1.729,1.729,0,0,0,.093.172c.024.04.048.081.075.119a1.743,1.743,0,0,0,.125.152c.033.036.066.072.1.106.021.019.037.042.059.061s.036.017.052.03a1.736,1.736,0,0,0,.452.263c.035.014.071.022.107.033a1.732,1.732,0,0,0,.488.085c.012,0,.023.006.035.006l.023,0H121.478l.023,0c.012,0,.023-.006.034-.006a1.732,1.732,0,0,0,.489-.085c.035-.011.07-.019.1-.033a1.736,1.736,0,0,0,.453-.263c.016-.013.036-.017.052-.03s.038-.042.059-.061c.036-.034.069-.069.1-.106a1.743,1.743,0,0,0,.125-.152c.027-.038.051-.078.075-.119a1.729,1.729,0,0,0,.093-.172c.021-.045.037-.092.054-.139a1.74,1.74,0,0,0,.056-.179c.012-.05.019-.1.027-.152a1.737,1.737,0,0,0,.019-.188c0-.023.007-.045.007-.068ZM45.8,60.316,62.858,74.993a1.751,1.751,0,0,0,2.283,0L82.2,60.316l35.512,41.741H10.289ZM8.25,99.052V28.007l34.9,30.026Zm76.6-41.019,34.9-30.026V99.052Zm31.931-32.091L81.276,56.493c-.006.005-.014.008-.02.014s-.012.014-.019.02L64,71.358,46.763,56.527c-.007-.006-.012-.014-.019-.02l-.02-.014L11.217,25.942Z"
     id="path1" />
  <path
     style="fill:#ffffff;stroke-width:0.157055"
     d="M 37.72116,48.634467 11.520848,26.071166 37.760424,26.031443 c 14.431766,-0.02185 38.049192,-0.02185 52.483168,0 l 26.243598,0.03972 -26.187712,22.537423 C 75.89624,61.004172 64.068954,71.157658 64.016621,71.17189 63.96429,71.186124 52.131331,61.044284 37.72116,48.634467 Z"
     id="path2" />
  <path
     style="fill:#ffffff;stroke-width:0.157055"
     d="m 8.402454,63.516871 c 0,-33.239327 0.015057,-35.19482 0.2694212,-34.991316 0.857633,0.686146 34.2111058,29.407916 34.2436078,29.488295 0.02168,0.0536 -7.734887,9.235255 -17.236809,20.403674 L 8.402454,98.723739 Z"
     id="path3" />
  <path
     style="fill:#ffffff;stroke-width:0.157055"
     d="m 10.601227,101.92447 c 0,-0.21312 35.099676,-41.298839 35.267609,-41.282294 0.105307,0.01038 3.965781,3.268702 8.57883,7.240728 4.613051,3.972026 8.538824,7.302924 8.723942,7.401996 0.433481,0.231992 1.225933,0.230585 1.662302,-0.003 0.188152,-0.100695 4.116558,-3.432032 8.729793,-7.402971 4.613233,-3.970938 8.471648,-7.227937 8.574254,-7.237775 0.166376,-0.01595 35.260813,41.069476 35.260813,41.280206 0,0.0473 -24.029445,0.086 -53.39877,0.086 -29.369325,0 -53.398773,-0.0373 -53.398773,-0.0829 z"
     id="path4" />
  <path
     style="fill:#ffffff;stroke-width:0.157055"
     d="M 102.28256,78.367992 C 92.802512,67.226333 85.063616,58.068069 85.085016,58.016294 c 0.0214,-0.05177 7.777806,-6.750058 17.236454,-14.885072 l 17.19755,-14.790935 0.0399,17.606847 c 0.022,9.683766 0.022,25.497951 0,35.142634 l -0.0399,17.535788 z"
     id="path5" />
</svg>
