<?xml version="1.0" encoding="UTF-8" standalone="no"?>
<svg
   x="0px"
   y="0px"
   width="36"
   height="36"
   viewBox="0 0 36 36"
   version="1.1"
   id="svg2"
   sodipodi:docname="linkedin.svg"
   inkscape:version="1.4 (86a8ad7, 2024-10-11)"
   xmlns:inkscape="http://www.inkscape.org/namespaces/inkscape"
   xmlns:sodipodi="http://sodipodi.sourceforge.net/DTD/sodipodi-0.dtd"
   xmlns="http://www.w3.org/2000/svg"
   xmlns:svg="http://www.w3.org/2000/svg">
  <defs
     id="defs2" />
  <sodipodi:namedview
     id="namedview2"
     pagecolor="#ffffff"
     bordercolor="#000000"
     borderopacity="0.25"
     inkscape:showpageshadow="2"
     inkscape:pageopacity="0.0"
     inkscape:pagecheckerboard="0"
     inkscape:deskcolor="#d1d1d1"
     inkscape:zoom="16.979167"
     inkscape:cx="17.992638"
     inkscape:cy="22.704294"
     inkscape:window-width="1920"
     inkscape:window-height="1017"
     inkscape:window-x="-8"
     inkscape:window-y="487"
     inkscape:window-maximized="1"
     inkscape:current-layer="svg2" />
  <path
     fill="#0288d1"
     d="m 36,31 c 0,2.762 -2.238,5 -5,5 H 5 C 2.239,36 0,33.762 0,31 V 5 C 0,2.238 2.239,0 5,0 h 26 c 2.762,0 5,2.238 5,5 z"
     id="path1" />
  <path
     fill="#ffffff"
     d="m 6,13 h 5 V 30 H 6 Z M 8.485,11 H 8.457 C 6.965,11 6,9.888 6,8.499 6,7.08 6.995,6 8.514,6 10.035,6 10.972,7.08 11,8.499 11,9.887 10.035,11 8.485,11 Z M 30,30 h -5 v -9.099 c 0,-2.198 -1.225,-3.698 -3.192,-3.698 -1.501,0 -2.313,1.012 -2.707,1.99 C 18.957,19.543 19,20.511 19,21 v 9 H 14 V 13 h 5 v 2.616 C 19.721,14.5 20.85,13 23.738,13 c 3.578,0 6.261,2.25 6.261,7.274 z"
     id="path2" />
</svg>
